<?xml version="1.0" encoding="iso-8859-1"?>
<!-- Generator: Adobe Illustrator 16.0.0, SVG Export Plug-In . SVG Version: 6.00 Build 0)  -->
<!DOCTYPE svg PUBLIC "-//W3C//DTD SVG 1.1//EN" "http://www.w3.org/Graphics/SVG/1.1/DTD/svg11.dtd">
<svg version="1.1" id="Capa_1" xmlns="http://www.w3.org/2000/svg" xmlns:xlink="http://www.w3.org/1999/xlink" x="0px" y="0px"
	 width="575.783px" height="575.783px" viewBox="0 0 575.783 575.783" style="enable-background:new 0 0 575.783 575.783;"
	 xml:space="preserve">
<g>
	<g>
		<path d="M487.106,238.621v-38.907c0-26.884-5.271-52.976-15.665-77.549c-10.034-23.725-24.396-45.027-42.685-63.316
			c-18.288-18.289-39.591-32.65-63.315-42.685C340.867,5.771,314.775,0.5,287.892,0.5c-43.755,0-85.282,13.919-120.091,40.253
			c-16.731,12.658-31.305,27.792-43.315,44.983c-12.188,17.446-21.444,36.595-27.51,56.917
			c-3.383,11.336,3.063,23.269,14.399,26.652c5.446,1.626,11.028,0.979,15.735-1.387c5.09-2.558,9.158-7.123,10.916-13.013
			c9.425-31.577,29.178-59.984,55.622-79.989c27.307-20.659,59.896-31.579,94.245-31.579c41.769,0,81.038,16.266,110.573,45.801
			s45.801,68.804,45.801,110.573v38.89H162.598H90.063c-32.058,0-58.14,26.082-58.14,58.141v220.4
			c0,32.057,26.082,58.139,58.14,58.139h395.658c32.059,0,58.14-26.082,58.14-58.139v-220.4
			C543.86,265.149,518.526,239.36,487.106,238.621z M501.021,517.145c0,8.449-6.851,15.299-15.3,15.299H90.063
			c-8.45,0-15.3-6.85-15.3-15.299v-220.4c0-8.449,6.85-15.3,15.3-15.3h94.043h260.159h21.42h20.035c0.467,0,0.929,0.025,1.386,0.065
			c7.8,0.702,13.915,7.253,13.915,15.235L501.021,517.145L501.021,517.145z"/>
		<path d="M485.721,575.783H90.063c-32.334,0-58.64-26.306-58.64-58.639v-220.4c0-32.334,26.306-58.641,58.64-58.641h353.703v-38.39
			c0-41.636-16.214-80.779-45.654-110.22s-68.584-45.654-110.22-45.654c-34.238,0-66.723,10.885-93.943,31.478
			c-26.359,19.941-46.05,48.257-55.444,79.733c-1.745,5.844-5.712,10.573-11.17,13.316c-4.949,2.487-10.782,3.009-16.103,1.419
			c-11.582-3.457-18.192-15.692-14.735-27.274c6.081-20.372,15.359-39.57,27.579-57.06c12.04-17.234,26.65-32.406,43.423-45.096
			C202.396,13.955,244.027,0,287.892,0c26.95,0,53.107,5.284,77.744,15.704c23.785,10.06,45.141,24.457,63.475,42.792
			c18.335,18.335,32.732,39.691,42.792,63.475c10.42,24.635,15.704,50.792,15.704,77.744v38.421
			c15.161,0.481,29.355,6.729,40.017,17.627c10.793,11.033,16.737,25.587,16.737,40.982v220.4
			C544.36,549.478,518.055,575.783,485.721,575.783z M90.063,239.104c-31.783,0-57.64,25.857-57.64,57.641v220.4
			c0,31.782,25.857,57.639,57.64,57.639h395.658c31.782,0,57.64-25.856,57.64-57.639v-220.4c0-15.132-5.843-29.438-16.452-40.283
			c-10.592-10.827-24.731-16.985-39.813-17.34l-0.488-0.012v-39.396c0-26.817-5.257-52.843-15.626-77.354
			c-10.008-23.665-24.333-44.914-42.577-63.157c-18.242-18.243-39.491-32.568-63.156-42.578C340.733,6.257,314.708,1,287.892,1
			c-43.645,0-85.067,13.884-119.79,40.152c-16.69,12.626-31.227,27.723-43.208,44.871c-12.158,17.403-21.391,36.504-27.44,56.774
			c-3.299,11.054,3.009,22.731,14.063,26.03c5.079,1.517,10.644,1.019,15.368-1.354c5.21-2.618,8.997-7.131,10.662-12.709
			c9.455-31.678,29.271-60.176,55.799-80.245c27.395-20.725,60.088-31.68,94.546-31.68c41.902,0,81.297,16.318,110.927,45.947
			s45.947,69.024,45.947,110.927v39.39H90.063z M485.721,532.943H90.063c-8.712,0-15.8-7.087-15.8-15.799v-220.4
			c0-8.712,7.088-15.8,15.8-15.8h395.658c0.481,0,0.958,0.025,1.43,0.067c8.193,0.737,14.371,7.501,14.371,15.733l-0.001,220.4
			C501.521,525.856,494.433,532.943,485.721,532.943z M90.063,281.944c-8.161,0-14.8,6.639-14.8,14.8v220.4
			c0,8.16,6.639,14.799,14.8,14.799h395.658c8.16,0,14.8-6.639,14.8-14.799l0.001-220.4c0-7.711-5.786-14.047-13.46-14.737
			c-0.441-0.039-0.889-0.063-1.341-0.063H90.063z"/>
	</g>
	<g>
		<path d="M287.892,303.236c-33.887,0-61.536,27.207-62.256,60.924c-0.01,0.449-0.017,0.898-0.017,1.35
			c0,20.881,10.33,39.393,26.147,50.695c4.363,3.119,9.145,5.686,14.242,7.605v20.762v28.307c0,11.83,9.59,21.42,21.42,21.42
			c0.156,0,0.31-0.008,0.464-0.012c5.985-0.127,11.363-2.707,15.172-6.777c3.584-3.83,5.782-8.973,5.782-14.631v-7.533v-41.193
			c24.06-8.623,41.318-31.654,41.318-58.643C350.165,331.172,322.229,303.236,287.892,303.236z M287.892,384.943
			c-10.733,0-19.433-8.701-19.433-19.434s8.7-19.434,19.433-19.434c10.732,0,19.434,8.701,19.434,19.434
			S298.625,384.943,287.892,384.943z"/>
		<path d="M287.428,494.799c-12.087,0-21.92-9.833-21.92-21.92v-48.724c-4.976-1.905-9.695-4.442-14.033-7.543
			c-16.503-11.794-26.356-30.897-26.356-51.103c0-0.455,0.007-0.907,0.017-1.36c0.352-16.455,7.042-31.887,18.84-43.452
			c11.815-11.582,27.412-17.961,43.916-17.961c34.613,0,62.773,28.16,62.773,62.773c0,26.312-16.59,49.974-41.318,58.993v48.376
			c0,5.577-2.102,10.895-5.917,14.973c-4.068,4.347-9.582,6.81-15.527,6.936l-0.148,0.005
			C287.646,494.795,287.538,494.799,287.428,494.799z M287.892,303.736c-16.24,0-31.588,6.277-43.215,17.675
			c-11.61,11.382-18.195,26.567-18.541,42.76c-0.01,0.445-0.017,0.892-0.017,1.339c0,19.883,9.696,38.683,25.938,50.288
			c4.361,3.118,9.114,5.656,14.127,7.545l0.324,0.122v49.414c0,11.535,9.385,20.92,20.92,20.92l0.452-0.012
			c5.675-0.12,10.938-2.471,14.82-6.619c3.642-3.892,5.647-8.967,5.647-14.289v-49.078l0.331-0.119
			c24.516-8.786,40.987-32.164,40.987-58.172C349.665,331.448,321.953,303.736,287.892,303.736z M287.892,385.443
			c-10.991,0-19.933-8.942-19.933-19.934s8.942-19.934,19.933-19.934s19.934,8.942,19.934,19.934S298.883,385.443,287.892,385.443z
			 M287.892,346.576c-10.44,0-18.933,8.493-18.933,18.934s8.493,18.934,18.933,18.934c10.44,0,18.934-8.493,18.934-18.934
			S298.332,346.576,287.892,346.576z"/>
	</g>
</g>
<g>
</g>
<g>
</g>
<g>
</g>
<g>
</g>
<g>
</g>
<g>
</g>
<g>
</g>
<g>
</g>
<g>
</g>
<g>
</g>
<g>
</g>
<g>
</g>
<g>
</g>
<g>
</g>
<g>
</g>
</svg>
